<svg id="help_black_24dp" xmlns="http://www.w3.org/2000/svg" width="23.904" height="23.904" viewBox="0 0 23.904 23.904">
  <path id="패스_75" data-name="패스 75" d="M0,0H23.9V23.9H0Z" fill="none"/>
  <path id="패스_76" data-name="패스 76" d="M10.46,2a8.46,8.46,0,1,0,8.46,8.46A8.463,8.463,0,0,0,10.46,2Zm.846,14.382H9.614V14.69h1.692Zm1.751-6.557L12.3,10.6A2.88,2.88,0,0,0,11.306,13H9.614v-.423a3.405,3.405,0,0,1,.99-2.394l1.049-1.066a1.654,1.654,0,0,0,.5-1.193,1.692,1.692,0,1,0-3.384,0H7.076a3.384,3.384,0,1,1,6.768,0A2.692,2.692,0,0,1,13.057,9.826Z" transform="translate(1.492 1.492)" fill="red"/>
</svg>
