<svg xmlns="http://www.w3.org/2000/svg" width="131.934" height="104.617" viewBox="0 0 131.934 104.617"><defs><style>.a,.b,.d,.e{fill:none;}.a{stroke:#000;}.a,.d,.e{stroke-linecap:round;stroke-width:2px;}.a,.e{stroke-linejoin:round;}.c{fill:#cd000f;}.d,.e{stroke:#cd000f;}.d{stroke-miterlimit:10;}</style></defs><g transform="translate(1 1)"><path class="a" d="M430,462.261h18.7v43.311H430" transform="translate(-430 -402.955)"/><line class="a" y2="34.452" transform="translate(23.623 63.736)"/><path class="a" d="M460.5,466.357h3.94c4.349,0,7.875-2.889,7.875-6.452h0c0-4.455,4.407-8.063,9.843-8.063h25.593c3.8,0,6.89,2.528,6.89,5.647v.806c0,3.115-3.085,5.647-6.89,5.647h-12.8" transform="translate(-430.973 -402.623)"/><path class="a" d="M524.878,465l24.217.055a4.922,4.922,0,0,1,4.922,4.922h0v2.954h1.969a4.922,4.922,0,0,1,4.922,4.922h0v1.969a4.922,4.922,0,0,1-4.922,4.922h-1.969V487.7a4.922,4.922,0,0,1-4.922,4.923h-2.954v3.939a4.922,4.922,0,0,1-4.922,4.922H460.5" transform="translate(-430.973 -403.043)"/><g transform="translate(56.193 16.664)"><path class="b" d="M511.74,418.213a23.643,23.643,0,0,0-22.594,30.772h0a23.663,23.663,0,0,0,8,11.553v3.936h0v9.3a1.821,1.821,0,0,0,1.822,1.82h25.5a1.813,1.813,0,0,0,1.813-1.811V460.538a23.669,23.669,0,0,0-14.542-42.325Z" transform="translate(-488.045 -418.213)"/><path class="c" d="M511.715,418.237a23.657,23.657,0,0,0-22.581,30.749h1.927a21.837,21.837,0,1,1,40.209,2.633,22.135,22.135,0,0,1-6.118,7.477,1.832,1.832,0,0,0-.7,1.443v13.22H498.981v-9.284h-1.833v9.3a1.821,1.821,0,0,0,1.821,1.82h25.5a1.812,1.812,0,0,0,1.813-1.813V460.539a23.653,23.653,0,0,0-14.567-42.3Z" transform="translate(-488.045 -418.214)"/></g><path class="d" d="M524.74,480.309h0c0,2.717-2.84,4.922-6.355,4.922H505.678c-3.508,0-6.354-2.2-6.354-4.922" transform="translate(-432.213 -403.531)"/><line class="d" y1="7.875" transform="translate(79.863)"/><line class="d" x1="5.568" y1="5.568" transform="translate(54.139 8.212)"/><line class="d" y1="5.568" x2="5.568" transform="translate(100.74 8.212)"/><path class="e" d="M512.36,456.924" transform="translate(-432.629 -402.785)"/><path class="e" d="M512.36,428.453a13.78,13.78,0,0,1,13.781,13.781h0" transform="translate(-432.629 -401.876)"/></g></svg>