<svg xmlns="http://www.w3.org/2000/svg" width="75.231" height="106.377" viewBox="0 0 75.231 106.377"><defs><style>.a,.b,.c,.d,.e,.f,.i{fill:none;}.a,.d{stroke:#161615;}.a,.b,.c{stroke-linejoin:round;}.a,.b,.c,.d,.e{stroke-width:2px;}.b,.c{stroke:#d9000d;}.b{stroke-linecap:square;}.c{stroke-linecap:round;}.d,.e,.f{stroke-miterlimit:10;}.e{stroke:#000;}.g,.h{stroke:none;}.h{fill:#161615;}</style></defs><g transform="translate(1.055 1.003)"><path class="a" d="M782.723,215.451" transform="translate(-719.656 -146.783)"/><path class="b" d="M769.656,203.413l2.69-47.561a1.073,1.073,0,0,1,1.065-1.072l14.987.875a1.071,1.071,0,0,1,.933,1.187l-2.7,46.57" transform="translate(-721.379 -154.779)"/><line class="c" x2="7.26" y2="0.423" transform="translate(51.465 7.905)"/><line class="c" x2="5.445" y2="0.318" transform="translate(51.069 14.684)"/><line class="c" x2="5.445" y2="0.318" transform="translate(50.674 21.463)"/><line class="c" x2="5.445" y2="0.318" transform="translate(50.278 28.242)"/><line class="c" x2="7.26" y2="0.423" transform="translate(49.883 35.021)"/><line class="c" x2="5.445" y2="0.318" transform="translate(49.489 41.801)"/><path class="b" d="M762.71,200.394l4.5-21.29a.826.826,0,0,0-.575-1.01l-.561-.13-.882-8.871-4.6,7.606-.822-.19a.814.814,0,0,0-.95.656l-5.173,24.36" transform="translate(-722.488 -152.892)"/><path class="b" d="M750.378,201.362l-4.5-20.4a11.305,11.305,0,0,0-4.2-19.216l2.244,9.936-11.538.286-1.745-7.728a11.3,11.3,0,0,0,5.394,19.381l4.156,18.869" transform="translate(-727 -153.86)"/><path class="a" d="M751.876,219.548" transform="translate(-723.722 -146.244)"/><path class="a" d="M745.048,221.09" transform="translate(-724.621 -146.04)"/><path class="d" d="M752.1,208.786" transform="translate(-723.691 -147.661)"/><path class="d" d="M758.862,210.75" transform="translate(-722.801 -147.403)"/><line class="d" x1="9.81" transform="translate(38.694 48.917)"/><path class="d" d="M768.656,210.527" transform="translate(-721.511 -147.432)"/><path class="d" d="M782.983,211.9" transform="translate(-719.623 -147.251)"/><path class="e" d="M791.9,198H729.656v54.325a1.132,1.132,0,0,0,1.132,1.132h67.907a1.131,1.131,0,0,0,1.132-1.132V198h-8.31" transform="translate(-726.65 -149.083)"/><g class="f" transform="translate(-723.691 -147.691)"><path class="g" d="M752.151,208.564l-.046.251.11-.032Z"/><path class="h" d="M 752.1505126953125 208.5642700195312 L 752.2149047851562 208.7830963134766 L 752.1046752929688 208.8155059814453 L 752.1505126953125 208.5642700195312 Z"/></g><g transform="translate(24.51 60.801)"><g class="e" transform="translate(20.371)"><ellipse class="g" cx="3.395" cy="3.395" rx="3.395" ry="3.395"/><ellipse class="i" cx="3.395" cy="3.395" rx="2.395" ry="2.395"/></g><g class="e" transform="translate(0 12.45)"><ellipse class="g" cx="3.395" cy="3.395" rx="3.395" ry="3.395"/><ellipse class="i" cx="3.395" cy="3.395" rx="2.395" ry="2.395"/></g><g class="e" transform="translate(20.371 24.899)"><ellipse class="g" cx="3.395" cy="3.395" rx="3.395" ry="3.395"/><ellipse class="i" cx="3.395" cy="3.395" rx="2.395" ry="2.395"/></g><line class="e" x1="15.845" y2="10.186" transform="translate(5.659 4.527)"/><line class="e" x1="15.845" y1="10.186" transform="translate(5.659 16.977)"/></g></g></svg>