<svg xmlns="http://www.w3.org/2000/svg" width="31.866" height="31.866" viewBox="0 0 31.866 31.866"><defs><style>.a{fill:none;}.b{fill:#606060;}</style></defs><path class="a" d="M0,0H31.866V31.866H0Z"/><path class="b" d="M14.622,28.391a2.663,2.663,0,0,0,2.655-2.655H11.966A2.663,2.663,0,0,0,14.622,28.391Zm7.966-7.966V13.786c0-4.076-2.164-7.488-5.975-8.391v-.9a1.992,1.992,0,1,0-3.983,0v.9c-3.8.9-5.975,4.3-5.975,8.391v6.639L4,23.08v1.328H25.244V23.08Zm-2.655,1.328H9.311V13.786c0-3.293,2-5.975,5.311-5.975s5.311,2.682,5.311,5.975Z" transform="translate(1.311 0.819)"/></svg>