<svg xmlns="http://www.w3.org/2000/svg" width="86.402" height="101" viewBox="0 0 86.402 101"><defs><style>.a,.b{fill:none;stroke-linecap:round;stroke-linejoin:round;stroke-width:2px;}.a{stroke:#000;}.b{stroke:#d9000d;}</style></defs><g transform="translate(1.402 1)"><path class="a" d="M629,386V360.188A10.188,10.188,0,0,0,618.812,350H580v-8a1,1,0,0,1,1-1h12a5,5,0,0,0,5-5V323.16l4-2.308a1.187,1.187,0,0,0,.435-1.622l-3.425-5.931A7.532,7.532,0,0,1,598,309.536V308a22.024,22.024,0,0,0-44,0v49" transform="translate(-545 -287)"/><path class="b" d="M545,370l10,13,22-20" transform="translate(-545 -287)"/></g></svg>