<?xml version="1.0" encoding="utf-8"?>
<!-- Generator: Adobe Illustrator 23.0.1, SVG Export Plug-In . SVG Version: 6.00 Build 0)  -->
<svg version="1.1" id="레이어_1" xmlns="http://www.w3.org/2000/svg" xmlns:xlink="http://www.w3.org/1999/xlink" x="0px"
	 y="0px" viewBox="0 0 34.5 74.3" style="enable-background:new 0 0 34.5 74.3;" xml:space="preserve">
<style type="text/css">
	.st0{fill:#FF0000;}
	.st1{fill:#FFFFFF;}
</style>
<title>자산 2</title>
<g>
	<g id="레이어_1-2">
		<polygon class="st0" points="17.2,55.5 34.5,71.8 34.5,0 0,0 0,71.8 		"/>
		<path class="st1" d="M29.9,25.2c-1.6,0-2.8,1.3-2.9,2.7c0,0,0,0,0,0.1c0,0.2,0,0.5,0.1,0.7l-4.3,4.2c-0.3-0.1-0.7-0.2-1.1-0.2
			c-0.2,0-0.4,0-0.5,0l-3.5-3.4c0-0.2,0-0.5,0-0.7c-0.2-1.5-1.7-2.5-3.2-2.3s-2.6,1.5-2.4,3c0,0.1,0,0.1,0,0.2L7.5,34
			c-0.4-0.2-0.7-0.2-1-0.2c-1.6,0-2.8,1.3-2.8,2.7s1.3,2.7,2.8,2.7s2.8-1.3,2.8-2.7c0-0.2,0-0.4-0.1-0.5l4.7-4.5
			c0.4,0.1,0.8,0.2,1.2,0.1c0.2,0,0.5-0.1,0.7-0.2l3.2,3.1c-0.1,0.3-0.1,0.6-0.1,0.9c0,1.5,1.3,2.7,2.8,2.7s2.8-1.3,2.8-2.7l0,0
			c0-0.1,0-0.2,0-0.3l4.6-4.4c0.2,0.1,0.5,0.1,0.7,0.1c1.6,0.1,2.9-1.1,3-2.6c0.1-1.5-1.1-2.8-2.7-2.9C30.1,25.2,30,25.2,29.9,25.2
			L29.9,25.2z"/>
	</g>
</g>
</svg>
