<svg xmlns="http://www.w3.org/2000/svg" width="41.904" height="41.904" viewBox="0 0 41.904 41.904"><defs><style>.a{fill:none;}.b{fill:red;}</style></defs><path class="a" d="M0,0H41.9V41.9H0Z"/><path class="b" d="M19.46,2A17.46,17.46,0,1,0,36.92,19.46,17.467,17.467,0,0,0,19.46,2Zm1.746,29.682H17.714V28.19h3.492ZM24.82,18.151l-1.571,1.606A5.944,5.944,0,0,0,21.206,24.7H17.714v-.873a7.028,7.028,0,0,1,2.043-4.941l2.165-2.2a3.414,3.414,0,0,0,1.03-2.462,3.492,3.492,0,1,0-6.984,0H12.476a6.984,6.984,0,1,1,13.968,0A5.556,5.556,0,0,1,24.82,18.151Z" transform="translate(1.492 1.492)"/></svg>