<svg xmlns="http://www.w3.org/2000/svg" width="40" height="40" viewBox="0 0 40 40"><defs><style>.a{fill:none;}.b{fill:#ccc;}</style></defs><path class="a" d="M0,0H40V40H0ZM0,0H40V40H0ZM0,0H40V40H0ZM0,0H40V40H0Z"/><path class="b" d="M19.4,9.268a8.394,8.394,0,0,1,8.364,8.417,8.493,8.493,0,0,1-.4,2.458l5.118,5.151A19.868,19.868,0,0,0,37.8,17.668,19.742,19.742,0,0,0,13.311,6.019l3.63,3.653a8.548,8.548,0,0,1,2.459-.4ZM5.048,2.45,2.689,4.84,7.172,9.352A19.75,19.75,0,0,0,1,17.685,19.675,19.675,0,0,0,26.609,28.93L32.346,34.7,34.7,32.331ZM19.4,26.1a8.4,8.4,0,0,1-7.544-12.02l2.626,2.643a5.816,5.816,0,0,0-.1.96,5.028,5.028,0,0,0,5.018,5.05,4.479,4.479,0,0,0,.953-.118l2.626,2.643A8.008,8.008,0,0,1,19.4,26.1Zm4.968-8.973a4.982,4.982,0,0,0-4.416-4.444Z" transform="translate(0.6 1.471)"/></svg>