<svg xmlns="http://www.w3.org/2000/svg" width="42.135" height="40.923" viewBox="0 0 42.135 40.923"><defs><style>.a{fill:none;}.b{fill:red;}</style></defs><path class="a" d="M0,0H42.135V40.923H0Z"/><path class="b" d="M27.509,3a10.68,10.68,0,0,0-7.917,3.559A10.68,10.68,0,0,0,11.676,3,9.432,9.432,0,0,0,2,12.366C2,18.8,7.982,24.049,17.042,32.019l2.551,2.231L22.144,32c9.06-7.953,15.042-13.2,15.042-19.635A9.432,9.432,0,0,0,27.509,3ZM19.769,29.481l-.176.17-.176-.17c-8.374-7.34-13.9-12.193-13.9-17.115a5.919,5.919,0,0,1,6.157-5.96,6.886,6.886,0,0,1,6.281,4.019h3.29a6.841,6.841,0,0,1,6.263-4.019,5.919,5.919,0,0,1,6.157,5.96C33.667,17.288,28.143,22.142,19.769,29.481Z" transform="translate(1.475 2.136)"/></svg>