<svg xmlns="http://www.w3.org/2000/svg" width="65.511" height="66" viewBox="0 0 65.511 66"><defs><style>.a{fill:red;}.b{fill:none;}.c{fill:#fff;}</style></defs><rect class="a" width="64" height="66" transform="translate(0.493)"/><g transform="translate(0 0.489)"><path class="b" d="M0,0H65.511V65.511H0Z"/></g><g transform="translate(9.563 10.918)"><path class="b" d="M0,0H45.012V45.554H0Z"/><path class="c" d="M6.269,6.324H40.423V32.265H8.767l-2.5,2.529V6.324M6.269,2A4.291,4.291,0,0,0,2.021,6.324L2,45.235l8.539-8.647H40.423a4.309,4.309,0,0,0,4.269-4.324V6.324A4.309,4.309,0,0,0,40.423,2Zm4.269,21.618H36.154v4.324H10.539Zm0-6.485H36.154v4.324H10.539Zm0-6.485H36.154v4.324H10.539Z" transform="translate(-0.84 -0.84)"/></g></svg>