<svg xmlns="http://www.w3.org/2000/svg" width="28.326" height="27.512" viewBox="0 0 28.326 27.512"><defs><style>.a{fill:none;}</style></defs><path class="a" d="M0,0H28.326V27.512H0Z"/><path d="M19.149,3a7.18,7.18,0,0,0-5.322,2.393A7.18,7.18,0,0,0,8.5,3,6.341,6.341,0,0,0,2,9.3c0,4.328,4.021,7.854,10.112,13.212l1.715,1.5L15.542,22.5c6.091-5.347,10.112-8.873,10.112-13.2A6.341,6.341,0,0,0,19.149,3Zm-5.2,17.8-.118.114-.118-.114c-5.63-4.934-9.344-8.2-9.344-11.506A3.979,3.979,0,0,1,8.5,5.29a4.629,4.629,0,0,1,4.222,2.7h2.212a4.6,4.6,0,0,1,4.21-2.7A3.979,3.979,0,0,1,23.289,9.3C23.289,12.606,19.575,15.868,13.946,20.8Z" transform="translate(0.336 0.453)"/></svg>