<svg xmlns="http://www.w3.org/2000/svg" width="43.866" height="43.866" viewBox="0 0 43.866 43.866"><defs><style>.a{fill:none;}.b{fill:#606060;}</style></defs><path class="a" d="M0,0H43.866V43.866H0Z"/><path class="b" d="M20.622,40.391A4.039,4.039,0,0,0,24.777,36.5H16.466A4.04,4.04,0,0,0,20.622,40.391ZM33.088,28.732V19.017c0-5.965-3.387-10.959-9.35-12.281V5.415a3.124,3.124,0,0,0-6.233,0V6.736c-5.942,1.321-9.35,6.3-9.35,12.281v9.716L4,32.618v1.943H37.244V32.618Zm-4.155,1.943H12.311V19.017c0-4.819,3.137-8.744,8.311-8.744s8.311,3.925,8.311,8.744Z" transform="translate(1.311 0.819)"/></svg>