<svg xmlns="http://www.w3.org/2000/svg" width="30.481" height="29.605" viewBox="0 0 30.481 29.605"><defs><style>.a{fill:none;}.b{fill:red;}</style></defs><path class="a" d="M0,0H30.481V29.6H0Z"/><path class="b" d="M20.454,3a7.727,7.727,0,0,0-5.727,2.575A7.727,7.727,0,0,0,9,3,6.824,6.824,0,0,0,2,9.776c0,4.657,4.327,8.451,10.882,14.217l1.845,1.614,1.845-1.626c6.554-5.753,10.882-9.548,10.882-14.2A6.824,6.824,0,0,0,20.454,3Zm-5.6,19.157-.127.123-.127-.123C8.542,16.847,4.545,13.336,4.545,9.776A4.282,4.282,0,0,1,9,5.464a4.981,4.981,0,0,1,4.544,2.907h2.38a4.949,4.949,0,0,1,4.531-2.907,4.282,4.282,0,0,1,4.454,4.312C24.909,13.336,20.912,16.847,14.854,22.157Z" transform="translate(0.514 0.716)"/></svg>