<svg xmlns="http://www.w3.org/2000/svg" viewBox="0 0 345.44 144.6"><defs><style>.cls-1{fill:#606060;}</style></defs><title>자산 1</title><g id="레이어_2" data-name="레이어 2"><g id="레이어_1-2" data-name="레이어 1"><path class="cls-1" d="M142.76,72.42A71.38,71.38,0,1,1,71.62,1,71.37,71.37,0,0,1,142.76,72.42Z"/><path class="cls-1" d="M274.35,72.16V4.43c0-3.43,0-3.43,3.46-3.24a71.13,71.13,0,0,1,66.31,57.62c7.47,38.49-17.7,76-56.07,83.52-3.66.71-7.44.81-11.16,1.28-2,.25-2.59-.5-2.57-2.47.06-12.58,0-25.16,0-37.74Z"/><path class="cls-1" d="M230.86,54.34C244,68.94,249.25,85.79,244,105c-5.64,20.87-19.59,33.82-40.59,38.32-18.2,3.9-34.13-1.58-47.63-14Z"/><path class="cls-1" d="M253.21,15.08,178.38,90.21c-12.42-13.31-17.57-29-14.09-46.82,4.18-21.34,17.18-35.48,38.17-41.31C221.74-3.27,238.72,1.92,253.21,15.08Z"/></g></g></svg>