<svg xmlns="http://www.w3.org/2000/svg" width="26.157" height="26.157" viewBox="0 0 26.157 26.157"><defs><style>.a,.b{fill:none;}.b{opacity:0.87;}.c{fill:red;}</style></defs><path class="a" d="M0,0H26.157V26.157H0Z"/><path class="b" d="M0,0H26.157V26.157H0Z"/><path class="c" d="M19.258,8.629h-1.09V6.449a5.449,5.449,0,1,0-10.9,0v2.18H6.18A2.186,2.186,0,0,0,4,10.809v10.9a2.186,2.186,0,0,0,2.18,2.18H19.258a2.186,2.186,0,0,0,2.18-2.18v-10.9A2.186,2.186,0,0,0,19.258,8.629ZM9.449,6.449a3.27,3.27,0,0,1,6.539,0v2.18H9.449Zm9.809,15.258H6.18v-10.9H19.258Zm-6.539-3.27a2.18,2.18,0,1,0-2.18-2.18A2.186,2.186,0,0,0,12.719,18.438Z" transform="translate(0.359 0.09)"/></svg>