<svg xmlns="http://www.w3.org/2000/svg" width="25.719" height="25.719" viewBox="0 0 25.719 25.719"><defs><style>.a{fill:none;}</style></defs><path class="a" d="M0,0H25.719V25.719H0Z"/><path d="M19.075,17.089a3.121,3.121,0,0,0-2.1.825L9.333,13.467a3.508,3.508,0,0,0,.1-.75,3.508,3.508,0,0,0-.1-.75l7.555-4.4A3.208,3.208,0,1,0,15.86,5.215a3.508,3.508,0,0,0,.1.75L8.4,10.37a3.215,3.215,0,1,0,0,4.694l7.63,4.458a3.023,3.023,0,0,0-.086.7,3.129,3.129,0,1,0,3.129-3.129Z" transform="translate(0.215 0.143)"/></svg>