<svg xmlns="http://www.w3.org/2000/svg" width="122.35" height="51.053" viewBox="0 0 122.35 51.053"><defs><style>.a{fill:#1262ab;}.b{fill:none;}</style></defs><g transform="translate(0.34)"><g transform="translate(0 0)"><ellipse class="a" cx="25.215" cy="25.215" rx="25.215" ry="25.215" transform="translate(0 0.305)"/><path class="a" d="M524.1,26.973A25.213,25.213,0,0,0,498.93,1.76V52.189A25.215,25.215,0,0,0,524.1,26.973Z" transform="translate(-402.088 -1.419)"/><path class="a" d="M302.352,5.486a18.73,18.73,0,0,0-.025,26.463L328.818,5.462a18.732,18.732,0,0,0-26.465.023Z" transform="translate(-239.245 -0.001)"/><path class="a" d="M309.322,124.69a18.731,18.731,0,0,0,0-26.487l-.025-.023L282.81,124.667l.023.023A18.729,18.729,0,0,0,309.322,124.69Z" transform="translate(-227.917 -79.124)"/></g></g><rect class="b" width="122" height="51"/></svg>