<svg xmlns="http://www.w3.org/2000/svg" width="21" height="28" viewBox="0 0 21 28"><defs><style>.a,.b{fill:#fff;}.b{stroke:#707070;stroke-width:3px;}.c,.d{stroke:none;}.d{fill:#707070;}.e{fill:none;}</style></defs><g class="a" transform="translate(0 10)"><path class="c" d="M 19.5 16.5 L 1.5 16.5 L 1.5 11.25 C 1.5 5.87382984161377 5.537380218505859 1.5 10.5 1.5 C 15.46261978149414 1.5 19.5 5.87382984161377 19.5 11.25 L 19.5 16.5 Z"/><path class="d" d="M 10.5 3 C 6.364489555358887 3 3 6.700929641723633 3 11.25 L 3 15 L 18 15 L 18 11.25 C 18 6.700929641723633 14.6355094909668 3 10.5 3 M 10.5 0 C 16.29899024963379 0 21 5.036800384521484 21 11.25 L 21 18 L 0 18 L 0 11.25 C 0 5.036800384521484 4.701009750366211 0 10.5 0 Z"/></g><g class="b" transform="translate(3)"><circle class="c" cx="7.5" cy="7.5" r="7.5"/><circle class="e" cx="7.5" cy="7.5" r="6"/></g></svg>